<svg id="emX38LB9yo01" xmlns="http://www.w3.org/2000/svg" xmlns:xlink="http://www.w3.org/1999/xlink" viewBox="0 0 700 400" shape-rendering="geometricPrecision" text-rendering="geometricPrecision" width="700" height="400"><style><![CDATA[#emX38LB9yo05 {animation: emX38LB9yo05_s_do 1800ms linear infinite normal forwards}@keyframes emX38LB9yo05_s_do { 0% {stroke-dashoffset: 0} 100% {stroke-dashoffset: 741.63}} #emX38LB9yo06 {animation: emX38LB9yo06_s_do 1800ms linear infinite normal forwards}@keyframes emX38LB9yo06_s_do { 0% {stroke-dashoffset: 0} 100% {stroke-dashoffset: 741.63}} #emX38LB9yo07 {animation: emX38LB9yo07_s_do 1800ms linear infinite normal forwards}@keyframes emX38LB9yo07_s_do { 0% {stroke-dashoffset: 0} 100% {stroke-dashoffset: 741.63}} #emX38LB9yo018 {animation: emX38LB9yo018_s_do 1800ms linear infinite normal forwards}@keyframes emX38LB9yo018_s_do { 0% {stroke-dashoffset: 60} 100% {stroke-dashoffset: 801.63}} #emX38LB9yo019 {animation: emX38LB9yo019_s_do 1800ms linear infinite normal forwards}@keyframes emX38LB9yo019_s_do { 0% {stroke-dashoffset: 60} 100% {stroke-dashoffset: 801.63}} #emX38LB9yo020 {animation: emX38LB9yo020_s_do 1800ms linear infinite normal forwards}@keyframes emX38LB9yo020_s_do { 0% {stroke-dashoffset: 60} 100% {stroke-dashoffset: 801.63}} #emX38LB9yo031 {animation: emX38LB9yo031_s_do 1800ms linear infinite normal forwards}@keyframes emX38LB9yo031_s_do { 0% {stroke-dashoffset: 674.82} 100% {stroke-dashoffset: 0}} #emX38LB9yo032 {animation: emX38LB9yo032_s_do 1800ms linear infinite normal forwards}@keyframes emX38LB9yo032_s_do { 0% {stroke-dashoffset: 911.82} 100% {stroke-dashoffset: 237}}]]></style><rect id="emX38LB9yo02" display="none" width="80" height="80" rx="0" ry="0" transform="matrix(1 0 0 1 310 160)" fill="rgb(210,219,237)" stroke="none" stroke-width="0"/><g id="emX38LB9yo03" transform="matrix(0.318235 0 0 0.318235 270.441253 120.441248)"><g id="emX38LB9yo04" mask="url(#emX38LB9yo08)"><path id="emX38LB9yo05" d="M0,-120C20,-120,32.276219,-92.216568,48,-83.138439C63.723781,-74.06031,94.844919,-75.723781,103.923048,-60C113.001178,-44.276219,96,-18.156258,96,0C96,18.156258,113.001178,44.276219,103.923048,60C94.844919,75.723781,63.723781,74.06031,48,83.138439C32.276219,92.216568,18.156258,120,0,120C-18.156258,120,-32.276219,92.216568,-48,83.138439C-63.723781,74.06031,-94.844919,75.723781,-103.923048,60C-113.001178,44.276219,-96,18.156258,-96,0C-96,-18.156258,-113.001178,-44.276219,-103.923048,-60C-94.844919,-75.723781,-63.723781,-74.06031,-48,-83.138439C-32.276219,-92.216568,-20,-120,0,-120Z" transform="matrix(0 1 -1 0 250 250)" opacity="0.15" fill="none" stroke="rgb(0,205,255)" stroke-width="8" stroke-linecap="round" stroke-dasharray="500,241.63"/><path id="emX38LB9yo06" d="M0,-120C20,-120,32.276219,-92.216568,48,-83.138439C63.723781,-74.06031,94.844919,-75.723781,103.923048,-60C113.001178,-44.276219,96,-18.156258,96,0C96,18.156258,113.001178,44.276219,103.923048,60C94.844919,75.723781,63.723781,74.06031,48,83.138439C32.276219,92.216568,18.156258,120,0,120C-18.156258,120,-32.276219,92.216568,-48,83.138439C-63.723781,74.06031,-94.844919,75.723781,-103.923048,60C-113.001178,44.276219,-96,18.156258,-96,0C-96,-18.156258,-113.001178,-44.276219,-103.923048,-60C-94.844919,-75.723781,-63.723781,-74.06031,-48,-83.138439C-32.276219,-92.216568,-20,-120,0,-120Z" transform="matrix(0 1 -1 0 250 250)" fill="none" stroke="rgb(0,205,255)" stroke-width="8" stroke-linecap="round" stroke-dasharray="200,541.63"/><path id="emX38LB9yo07" d="M0,-120C20,-120,32.276219,-92.216568,48,-83.138439C63.723781,-74.06031,94.844919,-75.723781,103.923048,-60C113.001178,-44.276219,96,-18.156258,96,0C96,18.156258,113.001178,44.276219,103.923048,60C94.844919,75.723781,63.723781,74.06031,48,83.138439C32.276219,92.216568,18.156258,120,0,120C-18.156258,120,-32.276219,92.216568,-48,83.138439C-63.723781,74.06031,-94.844919,75.723781,-103.923048,60C-113.001178,44.276219,-96,18.156258,-96,0C-96,-18.156258,-113.001178,-44.276219,-103.923048,-60C-94.844919,-75.723781,-63.723781,-74.06031,-48,-83.138439C-32.276219,-92.216568,-20,-120,0,-120Z" transform="matrix(0 1 -1 0 250 250)" fill="none" stroke="rgb(255,255,255)" stroke-width="8" stroke-linecap="round" stroke-dasharray="41.63,700"/><mask id="emX38LB9yo08" mask-type="luminance"><g id="emX38LB9yo09"><path id="emX38LB9yo010" d="M0,-120C20,-120,32.276219,-92.216568,48,-83.138439C63.723781,-74.06031,94.844919,-75.723781,103.923048,-60C113.001178,-44.276219,96,-18.156258,96,0C96,18.156258,113.001178,44.276219,103.923048,60C94.844919,75.723781,63.723781,74.06031,48,83.138439C32.276219,92.216568,18.156258,120,0,120C-18.156258,120,-32.276219,92.216568,-48,83.138439C-63.723781,74.06031,-94.844919,75.723781,-103.923048,60C-113.001178,44.276219,-96,18.156258,-96,0C-96,-18.156258,-113.001178,-44.276219,-103.923048,-60C-94.844919,-75.723781,-63.723781,-74.06031,-48,-83.138439C-32.276219,-92.216568,-20,-120,0,-120Z" transform="matrix(0 1 -1 0 250 250)" fill="none" stroke="rgb(255,255,255)" stroke-width="18"/><path id="emX38LB9yo011" d="M48,-83.138439C63.723781,-74.06031,94.844919,-75.723781,103.923048,-60" transform="matrix(1 0 0 1 250 250)" fill="none" stroke="rgb(0,0,0)" stroke-width="18"/><path id="emX38LB9yo012" d="M96,0C96,18.156258,113.001178,44.276219,103.923048,60" transform="matrix(1 0 0 1 250 250)" fill="none" stroke="rgb(0,0,0)" stroke-width="18"/><path id="emX38LB9yo013" d="M48,83.138439C32.276219,92.216568,18.156258,120,0,120" transform="matrix(1 0 0 1 250 250)" fill="none" stroke="rgb(0,0,0)" stroke-width="18"/><path id="emX38LB9yo014" d="M-48,83.138439C-63.723781,74.06031,-94.844919,75.723781,-103.923048,60" transform="matrix(1 0 0 1 250 250)" fill="none" stroke="rgb(0,0,0)" stroke-width="18"/><path id="emX38LB9yo015" d="M-96,0C-96,-18.156258,-113.001178,-44.276219,-103.923048,-60" transform="matrix(1 0 0 1 250 250)" fill="none" stroke="rgb(0,0,0)" stroke-width="18"/><path id="emX38LB9yo016" d="M-48,-83.138439C-32.276219,-92.216568,-20,-120,0,-120" transform="matrix(1 0 0 1 250 250)" fill="none" stroke="rgb(0,0,0)" stroke-width="18"/></g></mask></g><g id="emX38LB9yo017" transform="matrix(0 1 -1 0 500 0)" mask="url(#emX38LB9yo021)"><path id="emX38LB9yo018" d="M0,-120C20,-120,32.276219,-92.216568,48,-83.138439C63.723781,-74.06031,94.844919,-75.723781,103.923048,-60C113.001178,-44.276219,96,-18.156258,96,0C96,18.156258,113.001178,44.276219,103.923048,60C94.844919,75.723781,63.723781,74.06031,48,83.138439C32.276219,92.216568,18.156258,120,0,120C-18.156258,120,-32.276219,92.216568,-48,83.138439C-63.723781,74.06031,-94.844919,75.723781,-103.923048,60C-113.001178,44.276219,-96,18.156258,-96,0C-96,-18.156258,-113.001178,-44.276219,-103.923048,-60C-94.844919,-75.723781,-63.723781,-74.06031,-48,-83.138439C-32.276219,-92.216568,-20,-120,0,-120Z" transform="matrix(0.866025 0.5 -0.5 0.866025 250 250)" opacity="0.15" fill="none" stroke="rgb(0,205,255)" stroke-width="8" stroke-linecap="round" stroke-dashoffset="60" stroke-dasharray="500,241.63"/><path id="emX38LB9yo019" d="M0,-120C20,-120,32.276219,-92.216568,48,-83.138439C63.723781,-74.06031,94.844919,-75.723781,103.923048,-60C113.001178,-44.276219,96,-18.156258,96,0C96,18.156258,113.001178,44.276219,103.923048,60C94.844919,75.723781,63.723781,74.06031,48,83.138439C32.276219,92.216568,18.156258,120,0,120C-18.156258,120,-32.276219,92.216568,-48,83.138439C-63.723781,74.06031,-94.844919,75.723781,-103.923048,60C-113.001178,44.276219,-96,18.156258,-96,0C-96,-18.156258,-113.001178,-44.276219,-103.923048,-60C-94.844919,-75.723781,-63.723781,-74.06031,-48,-83.138439C-32.276219,-92.216568,-20,-120,0,-120Z" transform="matrix(0.866025 0.5 -0.5 0.866025 250 250)" fill="none" stroke="rgb(0,205,255)" stroke-width="8" stroke-linecap="round" stroke-dashoffset="60" stroke-dasharray="200,541.63"/><path id="emX38LB9yo020" d="M0,-120C20,-120,32.276219,-92.216568,48,-83.138439C63.723781,-74.06031,94.844919,-75.723781,103.923048,-60C113.001178,-44.276219,96,-18.156258,96,0C96,18.156258,113.001178,44.276219,103.923048,60C94.844919,75.723781,63.723781,74.06031,48,83.138439C32.276219,92.216568,18.156258,120,0,120C-18.156258,120,-32.276219,92.216568,-48,83.138439C-63.723781,74.06031,-94.844919,75.723781,-103.923048,60C-113.001178,44.276219,-96,18.156258,-96,0C-96,-18.156258,-113.001178,-44.276219,-103.923048,-60C-94.844919,-75.723781,-63.723781,-74.06031,-48,-83.138439C-32.276219,-92.216568,-20,-120,0,-120Z" transform="matrix(0.866025 0.5 -0.5 0.866025 250 250)" fill="none" stroke="rgb(255,255,255)" stroke-width="8" stroke-linecap="round" stroke-dashoffset="60" stroke-dasharray="41.63,700"/><mask id="emX38LB9yo021" mask-type="luminance"><g id="emX38LB9yo022"><path id="emX38LB9yo023" d="M0,-120C20,-120,32.276219,-92.216568,48,-83.138439C63.723781,-74.06031,94.844919,-75.723781,103.923048,-60C113.001178,-44.276219,96,-18.156258,96,0C96,18.156258,113.001178,44.276219,103.923048,60C94.844919,75.723781,63.723781,74.06031,48,83.138439C32.276219,92.216568,18.156258,120,0,120C-18.156258,120,-32.276219,92.216568,-48,83.138439C-63.723781,74.06031,-94.844919,75.723781,-103.923048,60C-113.001178,44.276219,-96,18.156258,-96,0C-96,-18.156258,-113.001178,-44.276219,-103.923048,-60C-94.844919,-75.723781,-63.723781,-74.06031,-48,-83.138439C-32.276219,-92.216568,-20,-120,0,-120Z" transform="matrix(0 1 -1 0 250 250)" fill="none" stroke="rgb(255,255,255)" stroke-width="18"/><path id="emX38LB9yo024" d="M48,-83.138439C63.723781,-74.06031,94.844919,-75.723781,103.923048,-60" transform="matrix(1 0 0 1 250 250)" fill="none" stroke="rgb(0,0,0)" stroke-width="18"/><path id="emX38LB9yo025" d="M96,0C96,18.156258,113.001178,44.276219,103.923048,60" transform="matrix(1 0 0 1 250 250)" fill="none" stroke="rgb(0,0,0)" stroke-width="18"/><path id="emX38LB9yo026" d="M48,83.138439C32.276219,92.216568,18.156258,120,0,120" transform="matrix(1 0 0 1 250 250)" fill="none" stroke="rgb(0,0,0)" stroke-width="18"/><path id="emX38LB9yo027" d="M-48,83.138439C-63.723781,74.06031,-94.844919,75.723781,-103.923048,60" transform="matrix(1 0 0 1 250 250)" fill="none" stroke="rgb(0,0,0)" stroke-width="18"/><path id="emX38LB9yo028" d="M-96,0C-96,-18.156258,-113.001178,-44.276219,-103.923048,-60" transform="matrix(1 0 0 1 250 250)" fill="none" stroke="rgb(0,0,0)" stroke-width="18"/><path id="emX38LB9yo029" d="M-48,-83.138439C-32.276219,-92.216568,-20,-120,0,-120" transform="matrix(1 0 0 1 250 250)" fill="none" stroke="rgb(0,0,0)" stroke-width="18"/></g></mask></g><path id="emX38LB9yo030" d="M202.182251,242.341618C213.771124,241.979466,221.014171,237.452562,227.170759,228.036603C218.233004,267.431413,226.027168,282.648589,235.319184,282.721597C245.081248,282.798297,255.842935,259.513532,261.7563,228.941984C256.708954,269.287166,260.169972,282.772306,270.194094,282.772306C282.442065,282.772306,298.154109,254.193707,298.89641,238.97653C299.361528,229.441605,297.164374,225.862541,292.710565,225.738824C289.22801,225.642087,283.419827,229.947252,283.184366,239.718832C282.936932,249.987333,292.957999,258.400081,308.298893,258.523798" transform="matrix(1 0 0 1 -2.397886 -0.766034)" opacity="0.15" fill="none" stroke="rgb(0,205,255)" stroke-width="8" stroke-linecap="round" stroke-linejoin="round"/><path id="emX38LB9yo031" d="M202.182251,242.341618C213.771124,241.979466,221.014171,237.452562,227.170759,228.036603C218.233004,267.431413,226.027168,282.648589,235.319184,282.721597C245.081248,282.798297,255.842935,259.513532,261.7563,228.941984C256.708954,269.287166,260.169972,282.772306,270.194094,282.772306C282.442065,282.772306,298.154109,254.193707,298.89641,238.97653C299.361528,229.441605,297.164374,225.862541,292.710565,225.738824C289.22801,225.642087,283.419827,229.947252,283.184366,239.718832C282.936932,249.987333,292.957999,258.400081,308.298893,258.523798" transform="matrix(1 0 0 1 -2.397886 -0.766034)" fill="none" stroke="rgb(0,205,255)" stroke-width="8" stroke-linecap="round" stroke-linejoin="round" stroke-dashoffset="674.82" stroke-dasharray="137.41,200"/><path id="emX38LB9yo032" d="M202.182251,242.341618C213.771124,241.979466,221.014171,237.452562,227.170759,228.036603C218.233004,267.431413,226.027168,282.648589,235.319184,282.721597C245.081248,282.798297,255.842935,259.513532,261.7563,228.941984C256.708954,269.287166,260.169972,282.772306,270.194094,282.772306C282.442065,282.772306,298.154109,254.193707,298.89641,238.97653C299.361528,229.441605,297.164374,225.862541,292.710565,225.738824C289.22801,225.642087,283.419827,229.947252,283.184366,239.718832C282.936932,249.987333,292.957999,258.400081,308.298893,258.523798" transform="matrix(1 0 0 1 -2.397886 -0.766034)" fill="none" stroke="rgb(255,255,255)" stroke-width="8" stroke-linecap="round" stroke-linejoin="round" stroke-dashoffset="911.82" stroke-dasharray="37.41,300"/></g></svg>